<svg xmlns="http://www.w3.org/2000/svg" width="17.011" height="17.011" viewBox="0 0 17.011 17.011">
  <g id="settings" transform="translate(-259 -340.001)">
    <g id="Group_10019" data-name="Group 10019" transform="translate(259 340.001)">
      <path id="Path_109" data-name="Path 109" d="M16.14,6.721l-1.194-.2a6.742,6.742,0,0,0-.48-1.158l.7-.984a1.048,1.048,0,0,0-.114-1.354L14,1.963a1.043,1.043,0,0,0-.743-.309,1.032,1.032,0,0,0-.608.2l-.988.7a6.672,6.672,0,0,0-1.2-.494l-.2-1.18A1.05,1.05,0,0,0,9.221,0h-1.5A1.05,1.05,0,0,0,6.688.879L6.482,2.087a6.576,6.576,0,0,0-1.155.487l-.977-.7A1.05,1.05,0,0,0,3,1.984L1.933,3.043A1.052,1.052,0,0,0,1.819,4.4l.711,1a6.585,6.585,0,0,0-.473,1.162l-1.18.2A1.05,1.05,0,0,0,0,7.794v1.5a1.05,1.05,0,0,0,.878,1.038l1.208.206a6.576,6.576,0,0,0,.487,1.155l-.7.974a1.048,1.048,0,0,0,.114,1.354l1.059,1.059a1.043,1.043,0,0,0,.743.309,1.032,1.032,0,0,0,.608-.2l1-.711a6.722,6.722,0,0,0,1.123.462l.2,1.194a1.05,1.05,0,0,0,1.038.878h1.5a1.05,1.05,0,0,0,1.038-.878l.2-1.194a6.742,6.742,0,0,0,1.158-.48l.984.7a1.043,1.043,0,0,0,.611.2h0a1.043,1.043,0,0,0,.743-.309l1.059-1.059a1.052,1.052,0,0,0,.114-1.354l-.7-.988a6.693,6.693,0,0,0,.48-1.158l1.194-.2a1.05,1.05,0,0,0,.878-1.038v-1.5A1.037,1.037,0,0,0,16.14,6.721Zm-.082,2.534a.092.092,0,0,1-.078.092L14.488,9.6a.477.477,0,0,0-.384.352,5.689,5.689,0,0,1-.618,1.489.48.48,0,0,0,.021.522l.878,1.237a.1.1,0,0,1-.011.121l-1.059,1.059a.09.09,0,0,1-.068.028.087.087,0,0,1-.053-.018l-1.233-.878a.48.48,0,0,0-.522-.021A5.689,5.689,0,0,1,9.95,14.1a.472.472,0,0,0-.352.384l-.252,1.492a.092.092,0,0,1-.092.078h-1.5a.092.092,0,0,1-.092-.078l-.249-1.492a.477.477,0,0,0-.352-.384,5.907,5.907,0,0,1-1.457-.6.492.492,0,0,0-.242-.064.468.468,0,0,0-.277.089l-1.244.885a.106.106,0,0,1-.053.018.1.1,0,0,1-.068-.028L2.665,13.348a.1.1,0,0,1-.011-.121L3.529,12a.486.486,0,0,0,.021-.526A5.635,5.635,0,0,1,2.925,9.99a.487.487,0,0,0-.384-.352l-1.5-.256A.092.092,0,0,1,.959,9.29v-1.5A.092.092,0,0,1,1.038,7.7l1.482-.249A.48.48,0,0,0,2.907,7.1,5.683,5.683,0,0,1,3.514,5.6a.474.474,0,0,0-.025-.519L2.6,3.842a.1.1,0,0,1,.011-.121L3.674,2.663a.09.09,0,0,1,.068-.028.087.087,0,0,1,.053.018l1.226.874a.486.486,0,0,0,.526.021,5.635,5.635,0,0,1,1.485-.625.487.487,0,0,0,.352-.384l.256-1.5A.092.092,0,0,1,7.732.957h1.5a.092.092,0,0,1,.092.078L9.57,2.517a.48.48,0,0,0,.355.387,5.768,5.768,0,0,1,1.524.625.48.48,0,0,0,.522-.021L13.2,2.627a.106.106,0,0,1,.053-.018.1.1,0,0,1,.068.028L14.377,3.7a.1.1,0,0,1,.011.121L13.51,5.051a.48.48,0,0,0-.021.522,5.689,5.689,0,0,1,.618,1.489.472.472,0,0,0,.384.352l1.492.252a.092.092,0,0,1,.078.092v1.5Z" transform="translate(0 -0.001)" fill="#a5a2a2"/>
      <path id="Path_110" data-name="Path 110" d="M139.771,136a3.671,3.671,0,1,0,3.671,3.671A3.673,3.673,0,0,0,139.771,136Zm0,6.382a2.711,2.711,0,1,1,2.711-2.711A2.713,2.713,0,0,1,139.771,142.383Z" transform="translate(-131.264 -131.168)" fill="#a5a2a2"/>
    </g>
  </g>
</svg>
